<svg width="30" height="30" viewBox="0 0 30 30" fill="none" xmlns="http://www.w3.org/2000/svg">
<g id="T&#195;&#160;i kho&#225;&#186;&#163;n - Ch&#225;&#187;&#141;n">
<path id="Rectangle 1" d="M3.75 11.75C3.75 7.97876 3.75 6.09315 4.92157 4.92157C6.09315 3.75 7.97876 3.75 11.75 3.75H18.25C22.0212 3.75 23.9069 3.75 25.0784 4.92157C26.25 6.09315 26.25 7.97876 26.25 11.75V18.25C26.25 22.0212 26.25 23.9069 25.0784 25.0784C23.9069 26.25 22.0212 26.25 18.25 26.25H11.75C7.97876 26.25 6.09315 26.25 4.92157 25.0784C3.75 23.9069 3.75 22.0212 3.75 18.25V11.75Z" fill="black" fill-opacity="0.1"/>
<circle id="Ellipse 46" cx="15" cy="12.5" r="5" fill="#AB0059"/>
<path id="Intersect" fill-rule="evenodd" clip-rule="evenodd" d="M23.7247 25.6744C23.7348 25.788 23.6634 25.8929 23.5535 25.9234C22.3726 26.25 20.7137 26.25 18.25 26.25H11.75C9.28643 26.25 7.62753 26.25 6.4467 25.9234C6.33674 25.893 6.2654 25.7881 6.27546 25.6744C6.6184 21.8012 10.3935 18.75 15.0001 18.75C19.6066 18.75 23.3817 21.8012 23.7247 25.6744Z" fill="#AB0059"/>
</g>
</svg>
