<svg width="40" height="45" viewBox="0 0 40 45" fill="none" xmlns="http://www.w3.org/2000/svg">
<g id="Ho&#195;&#161; &#196;&#145;&#198;&#161;n">
<path id="Vector 57" d="M25 12.375L25 16.875L25 38.375L25 38.375C25 38.8113 25 39.0295 24.8618 39.0986C24.7236 39.1677 24.5491 39.0368 24.2 38.775L20.3 35.85C20.1556 35.7417 20.0833 35.6875 20 35.6875C19.9167 35.6875 19.8444 35.7417 19.7 35.85L15.3 39.15C15.1556 39.2583 15.0833 39.3125 15 39.3125C14.9167 39.3125 14.8444 39.2583 14.7 39.15L10.3 35.85C10.1556 35.7417 10.0833 35.6875 10 35.6875C9.91667 35.6875 9.84444 35.7417 9.7 35.85L5.8 38.775C5.45093 39.0368 5.27639 39.1677 5.1382 39.0986C5 39.0295 5 38.8113 5 38.375L5 9.62502C5 7.7394 5 6.79659 5.58579 6.2108C6.17157 5.62502 7.11438 5.62502 9 5.62502L30 5.62502L27.4 7.575L27.4 7.57502C26.2223 8.45829 25.6334 8.89993 25.3167 9.53336C25 10.1668 25 10.9029 25 12.375Z" fill="url(#paint0_linear_125_247)"/>
<path id="Rectangle 4117" d="M25 8.625C25 6.96815 26.3431 5.625 28 5.625H32C33.6569 5.625 35 6.96815 35 8.625V15.875C35 16.4273 34.5523 16.875 34 16.875H25.5C25.2239 16.875 25 16.6511 25 16.375V8.625Z" fill="#D9D9D9"/>
<path id="Vector 55" d="M9.16666 17.8125L20.8333 17.8125" stroke="#D9D9D9" stroke-linecap="round"/>
<path id="Vector 56" d="M9.16666 23.4375L15.8333 23.4375" stroke="#D9D9D9" stroke-linecap="round"/>
<path id="Vector 58" d="M9.16666 29.0625L19.1667 29.0625" stroke="#D9D9D9" stroke-linecap="round"/>
</g>
<defs>
<linearGradient id="paint0_linear_125_247" x1="-0.833334" y1="39.375" x2="43.1137" y2="22.5238" gradientUnits="userSpaceOnUse">
<stop stop-color="#072D94"/>
<stop offset="0.219935" stop-color="#58208C"/>
<stop offset="0.491211" stop-color="#741082"/>
<stop offset="0.714515" stop-color="#AB0059"/>
<stop offset="1" stop-color="#BC3026"/>
</linearGradient>
</defs>
</svg>
