<svg width="21" height="22" viewBox="0 0 21 22" fill="none" xmlns="http://www.w3.org/2000/svg">
<path d="M20 7.25L17.0312 4.125M17.0312 4.125L14.0625 1M17.0312 4.125L14.0625 7.25M17.0312 4.125L20 1M18.3503 18.646C18.3503 18.646 17.2037 19.8314 16.9227 20.1789C16.465 20.6931 15.9257 20.9359 15.2187 20.9359C15.1507 20.9359 15.0782 20.9359 15.0102 20.9311C13.6642 20.8407 12.4134 20.2884 11.4753 19.8171C8.91018 18.5127 6.65778 16.6607 4.78607 14.3137C3.24066 12.357 2.20736 10.5479 1.52303 8.60551C1.10156 7.42008 0.947469 6.49649 1.01545 5.62527C1.06077 5.06826 1.26471 4.60647 1.64086 4.21132L3.18627 2.5879C3.40834 2.3689 3.644 2.24988 3.87514 2.24988C4.16065 2.24988 4.39178 2.43079 4.53681 2.58314C4.54134 2.5879 4.54587 2.59266 4.5504 2.59742C4.82685 2.86878 5.08971 3.14967 5.36616 3.4496C5.50665 3.60194 5.65168 3.75429 5.7967 3.91139L7.03394 5.21108C7.51433 5.71573 7.51433 6.18228 7.03394 6.68692C6.90251 6.82499 6.77561 6.96305 6.64418 7.09635C6.2635 7.50577 6.56255 7.19163 6.16826 7.56297C6.1592 7.57249 6.15014 7.57725 6.1456 7.58677C5.75585 7.9962 5.82836 8.3961 5.90994 8.66746C5.91447 8.68175 5.919 8.69603 5.92354 8.71031C6.24531 9.52916 6.69851 10.3004 7.38737 11.2192L7.3919 11.224C8.64273 12.8427 9.96154 14.1043 11.4163 15.0707C11.6021 15.1945 11.7925 15.2945 11.9737 15.3897C12.1369 15.4754 12.291 15.5563 12.4224 15.642C12.4405 15.6515 12.4587 15.6658 12.4768 15.6753C12.6309 15.7563 12.7759 15.7943 12.9255 15.7943C13.3016 15.7943 13.5373 15.5468 13.6143 15.4658L14.5027 14.5327C14.6567 14.3708 14.9015 14.1756 15.187 14.1756C15.468 14.1756 15.6991 14.3613 15.8396 14.5232C15.8441 14.5279 15.8441 14.5279 15.8487 14.5327L18.3458 17.1559C18.8126 17.6415 18.3503 18.646 18.3503 18.646Z" stroke="#AB0059" stroke-linecap="round" stroke-linejoin="round"/>
</svg>
