<svg width="24" height="23" viewBox="0 0 24 23" fill="none" xmlns="http://www.w3.org/2000/svg">
<path d="M1 1H3.55848C4.2542 1 4.60206 1 4.86395 1.18876C5.12584 1.37752 5.23584 1.70753 5.45585 2.36754L6.33333 5" stroke="#AB0059" stroke-linecap="round"/>
<path d="M19.6667 18.3333H7.06788C6.45671 18.3333 6.15112 18.3333 5.93982 18.2275C5.64666 18.0807 5.44404 17.7996 5.39754 17.4751C5.36402 17.2412 5.46065 16.9513 5.65392 16.3715V16.3715C5.86804 15.7291 5.97511 15.4079 6.15649 15.1581C6.40793 14.8119 6.76379 14.5554 7.1718 14.4263C7.46614 14.3333 7.80471 14.3333 8.48183 14.3333H15.6667" stroke="#AB0059" stroke-linecap="round" stroke-linejoin="round"/>
<path d="M16.012 14.3333H10.3042C9.02499 14.3333 8.38538 14.3333 7.88444 14.003C7.3835 13.6727 7.13154 13.0848 6.62763 11.909L5.45881 9.18176C4.64931 7.29294 4.24457 6.34853 4.68917 5.67426C5.13378 5 6.16127 5 8.21624 5H18.4971C20.7961 5 21.9457 5 22.3792 5.74711C22.8128 6.49422 22.2425 7.49229 21.1018 9.48842L19.485 12.3179C18.923 13.3013 18.6421 13.793 18.1765 14.0632C17.7109 14.3333 17.1446 14.3333 16.012 14.3333Z" stroke="#AB0059" stroke-linecap="round"/>
<circle cx="19" cy="21.6666" r="1.33333" fill="#AB0059"/>
<circle cx="8.33333" cy="21.6666" r="1.33333" fill="#AB0059"/>
</svg>
