<svg width="20" height="20" viewBox="0 0 20 20" fill="none" xmlns="http://www.w3.org/2000/svg">
<path d="M6.625 13.375L13.375 6.625M7.14428 7.14001L7.13102 7.12661M12.8729 12.9275L12.8596 12.9141M7.72746 2.54012L5.91072 2.14204C5.62044 2.07843 5.3295 2.24641 5.23945 2.5296L4.67583 4.30199C4.61926 4.47988 4.47988 4.61926 4.30199 4.67583L2.5296 5.23945C2.24641 5.3295 2.07843 5.62044 2.14204 5.91072L2.54012 7.72746C2.58008 7.90981 2.52906 8.1002 2.40329 8.23814L1.15017 9.61244C0.949945 9.83202 0.949945 10.168 1.15017 10.3876L2.40329 11.7619C2.52906 11.8998 2.58008 12.0902 2.54012 12.2725L2.14204 14.0893C2.07843 14.3796 2.24641 14.6705 2.5296 14.7606L4.30199 15.3242C4.47988 15.3807 4.61926 15.5201 4.67583 15.698L5.23945 17.4704C5.3295 17.7536 5.62044 17.9216 5.91072 17.858L7.72746 17.4599C7.90981 17.4199 8.1002 17.4709 8.23814 17.5967L9.61244 18.8498C9.83202 19.0501 10.168 19.0501 10.3876 18.8498L11.7619 17.5967C11.8998 17.4709 12.0902 17.4199 12.2725 17.4599L14.0893 17.858C14.3796 17.9216 14.6705 17.7536 14.7606 17.4704L15.3242 15.698C15.3807 15.5201 15.5201 15.3807 15.698 15.3242L17.4704 14.7606C17.7536 14.6705 17.9216 14.3796 17.858 14.0893L17.4599 12.2725C17.4199 12.0902 17.4709 11.8998 17.5967 11.7619L18.8498 10.3876C19.0501 10.168 19.0501 9.83202 18.8498 9.61244L17.5967 8.23814C17.4709 8.1002 17.4199 7.90981 17.4599 7.72746L17.858 5.91072C17.9216 5.62044 17.7536 5.3295 17.4704 5.23945L15.698 4.67583C15.5201 4.61926 15.3807 4.47988 15.3242 4.30199L14.7606 2.5296C14.6705 2.24641 14.3796 2.07843 14.0893 2.14204L12.2725 2.54012C12.0902 2.58008 11.8998 2.52906 11.7619 2.40329L10.3876 1.15017C10.168 0.949945 9.83202 0.949945 9.61244 1.15017L8.23814 2.40329C8.1002 2.52906 7.90981 2.58008 7.72746 2.54012Z" stroke="white" stroke-linecap="round"/>
</svg>
