<svg width="67" height="67" viewBox="0 0 67 67" fill="none" xmlns="http://www.w3.org/2000/svg">
<path id="Icon" d="M21.3125 45.6875L45.6875 21.3125M23.1877 23.1723L23.1398 23.1239M43.8743 44.0716L43.8264 44.0232M25.2936 6.56156L18.7331 5.12403C17.6849 4.89435 16.6343 5.50092 16.3091 6.52354L14.2738 12.9238C14.0695 13.5662 13.5662 14.0695 12.9238 14.2738L6.52355 16.3091C5.50093 16.6343 4.89435 17.6849 5.12403 18.7331L6.56156 25.2936C6.70584 25.9521 6.52162 26.6396 6.06743 27.1377L1.54226 32.1005C0.819245 32.8934 0.819246 34.1066 1.54226 34.8995L6.06743 39.8623C6.52162 40.3604 6.70584 41.0479 6.56156 41.7064L5.12403 48.2668C4.89435 49.3151 5.50093 50.3657 6.52355 50.6909L12.9238 52.7262C13.5662 52.9305 14.0695 53.4338 14.2738 54.0761L16.3091 60.4764C16.6343 61.4991 17.6849 62.1056 18.7331 61.876L25.2936 60.4384C25.9521 60.2942 26.6396 60.4784 27.1377 60.9326L32.1005 65.4577C32.8934 66.1807 34.1066 66.1807 34.8995 65.4577L39.8623 60.9326C40.3604 60.4784 41.0479 60.2942 41.7064 60.4384L48.2669 61.876C49.3151 62.1056 50.3657 61.4991 50.6909 60.4764L52.7262 54.0761C52.9305 53.4338 53.4338 52.9305 54.0762 52.7262L60.4765 50.6909C61.4991 50.3657 62.1057 49.3151 61.876 48.2668L60.4384 41.7064C60.2942 41.0479 60.4784 40.3604 60.9326 39.8623L65.4577 34.8995C66.1808 34.1066 66.1808 32.8934 65.4577 32.1005L60.9326 27.1377C60.4784 26.6396 60.2942 25.9521 60.4384 25.2936L61.876 18.7331C62.1057 17.6849 61.4991 16.6343 60.4765 16.3091L54.0762 14.2738C53.4338 14.0695 52.9305 13.5662 52.7262 12.9238L50.6909 6.52355C50.3657 5.50093 49.3151 4.89435 48.2669 5.12403L41.7064 6.56156C41.0479 6.70584 40.3604 6.52161 39.8623 6.06743L34.8995 1.54226C34.1066 0.819246 32.8934 0.819246 32.1005 1.54226L27.1377 6.06743C26.6396 6.52162 25.9521 6.70584 25.2936 6.56156Z" stroke="white" stroke-width="1.5" stroke-linecap="round"/>
</svg>
