<svg width="21" height="19" viewBox="0 0 21 19" fill="none" xmlns="http://www.w3.org/2000/svg">
<path id="Icon" d="M11.7588 17.9429C11.071 18.1199 10.35 18.214 9.60702 18.214C4.85349 18.214 1 14.3605 1 9.60702C1 4.85349 4.85349 1 9.60702 1C13.9962 1 17.618 4.28539 18.1475 8.53114M2.07588 12.8347H4.58626C5.57658 12.8347 6.37939 12.0318 6.37939 11.0415V8.71046C6.37939 7.72014 7.1822 6.91733 8.17252 6.91733H9.96565C10.956 6.91733 11.7588 6.11452 11.7588 5.1242V2.07588M17.1808 15.0062L19.6447 14.1544C20.1066 13.9947 20.122 13.3472 19.6683 13.1657L13.5596 10.7219C13.1346 10.5519 12.7095 10.9665 12.8689 11.3955L15.1959 17.661C15.366 18.1188 16.0132 18.1199 16.1847 17.6626L17.1808 15.0062Z" stroke="white" stroke-linecap="round" stroke-linejoin="round"/>
</svg>
