<svg width="20" height="20" viewBox="0 0 20 20" fill="none" xmlns="http://www.w3.org/2000/svg">
<path id="Icon &#196;&#145;&#196;&#131;ng nh&#225;&#186;&#173;p" d="M7 1H3C1.89543 1 1 1.89543 1 3V7M7 19H3C1.89543 19 1 18.1046 1 17V13M13 1H17C18.1046 1 19 1.89543 19 3V7M19 13V17C19 18.1046 18.1046 19 17 19H13M6.0625 7.34241V6.24553M13.9375 7.34241V6.24553M6.86187 13.3752C8.14452 14.369 11.0208 14.369 12.8131 13.3752M9.4375 10.633L9.6705 10.4059C9.88147 10.2002 10 9.92116 10 9.63025V6.79397" stroke="#AB0059" stroke-linecap="round"/>
</svg>
