<svg width="22" height="23" viewBox="0 0 22 23" fill="none" xmlns="http://www.w3.org/2000/svg">
<path d="M11.1252 22.0526V6.82674M9.44193 5.91332C9.621 5.95562 9.8097 5.90378 9.93862 5.76807C10.0675 5.63236 10.1167 5.43365 10.0766 5.24523C9.9159 4.55416 9.32386 2.24007 8.71593 1.60015C7.95854 0.8029 6.72585 0.79958 5.97221 1.59289C5.21861 2.38614 5.22166 3.68372 5.97911 4.48103C6.59698 5.13142 8.78543 5.74416 9.44193 5.91332ZM11.2802 5.24518C11.24 5.43367 11.2892 5.6323 11.4182 5.76801C11.5471 5.90372 11.7359 5.95549 11.9149 5.91327C12.5714 5.74409 14.7698 5.12089 15.3777 4.48097C16.1351 3.68372 16.1382 2.38615 15.3846 1.59284C14.631 0.799582 13.3983 0.80279 12.6408 1.6001C12.023 2.25049 11.4409 4.55412 11.2802 5.24518ZM1.72323 12.1558H20.1656C20.565 12.1558 20.8888 11.815 20.8888 11.3945V7.58803C20.8888 7.16758 20.565 6.82674 20.1656 6.82674H1.72323C1.3238 6.82674 1 7.16758 1 7.58803V11.3945C1 11.815 1.3238 12.1558 1.72323 12.1558ZM19.0807 12.1558V21.2913C19.0807 21.7118 18.7569 22.0526 18.3575 22.0526H3.5313C3.13188 22.0526 2.80807 21.7118 2.80807 21.2913V12.1558H19.0807Z" stroke="#AB0059" stroke-linecap="round" stroke-linejoin="round"/>
</svg>
