<svg width="30" height="30" viewBox="0 0 30 30" fill="none" xmlns="http://www.w3.org/2000/svg">
<g id="M&#195;&#160;n h&#195;&#172;nh ch&#195;&#173;nh">
<path id="Union" fill-rule="evenodd" clip-rule="evenodd" d="M22.1884 2.75001H7.81156L7.76617 2.75001C7.43072 2.74994 7.09697 2.74987 6.81522 2.78356C6.49406 2.82196 6.13256 2.91391 5.79996 3.1736C5.46735 3.43329 5.29047 3.7617 5.17532 4.06395C5.0743 4.32912 4.99342 4.65293 4.91213 4.97838L4.90113 5.02241L2.93518 12.8862L2.92807 12.9145C2.89929 13.0288 2.85553 13.2027 2.8394 13.3614C2.81922 13.5598 2.81864 13.9282 3.08494 14.2693C3.35125 14.6104 3.70874 14.6991 3.90621 14.7277C4.06405 14.7505 4.24332 14.7502 4.36121 14.75H4.36122L4.39039 14.75C5.19747 14.75 5.60101 14.75 5.87501 14.9694C5.93245 15.0154 5.98464 15.0676 6.03062 15.125C6.25 15.399 6.25 15.8025 6.25 16.6096V24.25C6.25 25.1928 6.25 25.6642 6.5429 25.9571C6.83579 26.25 7.30719 26.25 8.25 26.25H21.75C22.6928 26.25 23.1642 26.25 23.4571 25.9571C23.75 25.6642 23.75 25.1928 23.75 24.25V16.6096C23.75 15.8025 23.75 15.399 23.9694 15.125C24.0154 15.0676 24.0676 15.0154 24.125 14.9694C24.399 14.75 24.8025 14.75 25.6096 14.75L25.6388 14.75C25.7567 14.7502 25.936 14.7505 26.0938 14.7277C26.2913 14.6991 26.6488 14.6104 26.9151 14.2693C27.1814 13.9282 27.1808 13.5598 27.1606 13.3614C27.1445 13.2027 27.1007 13.0288 27.0719 12.9145L27.0648 12.8862L25.0989 5.02241L25.0879 4.9784C25.0066 4.65294 24.9257 4.32913 24.8247 4.06395C24.7095 3.7617 24.5327 3.43329 24.2001 3.1736C23.8674 2.91391 23.5059 2.82196 23.1848 2.78356C22.903 2.74987 22.5693 2.74994 22.2338 2.75001L22.1884 2.75001ZM23.75 13.0357C23.75 13.4302 24.0698 13.75 24.4643 13.75H25.6096C25.9044 13.75 26.0518 13.75 26.1269 13.6539C26.2019 13.5577 26.1662 13.4147 26.0947 13.1287L24.1287 5.26494C23.9468 4.53738 23.8559 4.1736 23.5846 3.96181C23.3134 3.75001 22.9384 3.75001 22.1884 3.75001H7.81156C7.06161 3.75001 6.68663 3.75001 6.41537 3.96181C6.14411 4.1736 6.05316 4.53738 5.87127 5.26494L3.90532 13.1287C3.83383 13.4147 3.79808 13.5577 3.87315 13.6539C3.94822 13.75 4.09561 13.75 4.39039 13.75H5.36068C5.85184 13.75 6.25 13.3519 6.25 12.8607C6.25 12.6805 6.25 12.5904 6.25809 12.5007C6.26617 12.4111 6.28229 12.3225 6.31452 12.1452L6.52578 10.9832C6.98868 8.4373 7.22013 7.16433 8.13964 6.45963C9.05915 5.75494 10.3485 5.86239 12.9273 6.07728L14.6527 6.22107C14.8263 6.23553 14.913 6.24276 15 6.24244C15.0869 6.24211 15.1736 6.23423 15.347 6.21846L15.3471 6.21846L16.8665 6.08033C19.2603 5.86271 20.4573 5.7539 21.3534 6.37616C22.2496 6.99843 22.5658 8.15795 23.1983 10.477L23.6091 11.9832L23.6091 11.9832C23.6794 12.2412 23.7146 12.3702 23.7323 12.5024C23.75 12.6345 23.75 12.7682 23.75 13.0357Z" fill="black" fill-opacity="0.1"/>
<path id="Vector 3" d="M16.125 18.75H13.875C12.7704 18.75 11.875 19.6454 11.875 20.75V26.1C11.875 26.1828 11.9422 26.25 12.025 26.25H17.975C18.0578 26.25 18.125 26.1828 18.125 26.1V20.75C18.125 19.6454 17.2296 18.75 16.125 18.75Z" fill="#AB0059"/>
<path id="Rectangle 43" d="M5.87127 5.26493C6.05316 4.53737 6.1441 4.17359 6.41536 3.96179C6.68663 3.75 7.0616 3.75 7.81155 3.75H22.1884C22.9384 3.75 23.3134 3.75 23.5846 3.96179C23.8559 4.17359 23.9468 4.53737 24.1287 5.26493L26.0947 13.1287C26.1662 13.4147 26.2019 13.5577 26.1269 13.6539C26.0518 13.75 25.9044 13.75 25.6096 13.75H21.994C21.6356 13.75 21.4564 13.75 21.3235 13.6511C21.1907 13.5523 21.1392 13.3806 21.0362 13.0373L19.9725 9.49155C19.7559 8.76969 19.6476 8.40876 19.5585 8.42642C19.4694 8.44407 19.5069 8.81902 19.5819 9.56892L19.89 12.6505C19.9414 13.1642 19.9671 13.421 19.8182 13.5855C19.6694 13.75 19.4112 13.75 18.895 13.75H16.53C16.0999 13.75 15.8848 13.75 15.742 13.6207C15.5991 13.4915 15.5777 13.2775 15.535 12.8495L15.199 9.49007C15.1267 8.76668 15.0905 8.40499 15 8.40499C14.9095 8.40499 14.8733 8.76668 14.801 9.49007L14.465 12.8495C14.4223 13.2775 14.4009 13.4915 14.258 13.6207C14.1152 13.75 13.9001 13.75 13.47 13.75H11.105C10.5888 13.75 10.3306 13.75 10.1818 13.5855C10.0329 13.421 10.0586 13.1642 10.11 12.6505L10.4181 9.56892C10.4931 8.81902 10.5306 8.44407 10.4415 8.42642C10.3524 8.40876 10.2441 8.76969 10.0275 9.49155L8.9638 13.0373C8.86081 13.3806 8.80931 13.5523 8.67645 13.6511C8.54359 13.75 8.36438 13.75 8.00597 13.75H4.39039C4.0956 13.75 3.94821 13.75 3.87314 13.6539C3.79807 13.5577 3.83382 13.4147 3.90532 13.1287L5.87127 5.26493Z" fill="#AB0059"/>
</g>
</svg>
