<svg width="19" height="19" viewBox="0 0 19 19" fill="none" xmlns="http://www.w3.org/2000/svg">
<path id="Vector" d="M11.5269 7.69897H16.0861C16.4123 7.69898 16.7331 7.78236 17.018 7.9412C17.3029 8.10005 17.5425 8.32907 17.714 8.60655C17.8856 8.88402 17.9833 9.20072 17.9981 9.5266C18.0128 9.85248 17.944 10.1767 17.7981 10.4685L14.4487 17.1675C14.2897 17.4856 14.0452 17.7532 13.7426 17.9402C13.44 18.1271 13.0913 18.2261 12.7356 18.2259H8.89138C8.73539 18.2259 8.5794 18.2068 8.42724 18.1685L4.82798 17.2689M11.5269 7.69897V2.91399C11.5269 2.40637 11.3253 1.91954 10.9664 1.56059C10.6074 1.20165 10.1206 1 9.61296 1H9.52204C9.04354 1 8.65596 1.38758 8.65596 1.86608C8.65596 2.54938 8.45404 3.21736 8.07411 3.78581L4.82798 8.65596V17.2689M11.5269 7.69897H9.61296M4.82798 17.2689H2.91399C2.40637 17.2689 1.91954 17.0673 1.56059 16.7083C1.20165 16.3494 1 15.8626 1 15.3549V9.61296C1 9.10534 1.20165 8.6185 1.56059 8.25956C1.91954 7.90062 2.40637 7.69897 2.91399 7.69897H5.30648" stroke="#AB0059" stroke-linecap="round" stroke-linejoin="round"/>
</svg>
