<svg width="18" height="18" viewBox="0 0 18 18" fill="none" xmlns="http://www.w3.org/2000/svg">
<path id="Icon" d="M4.32614 7.10872L2.11595 9.31891C1.2905 10.1444 0.815822 11.2675 0.824496 12.4479C0.833171 13.6283 1.29747 14.7583 2.16208 15.5962C2.99995 16.4608 4.13018 16.9251 5.31037 16.9338C6.51749 16.9426 7.61405 16.4947 8.43955 15.6692L10.6497 13.459M13.4728 10.6899L15.683 8.47975C16.5085 7.65431 16.9832 6.53117 16.9745 5.35078C16.9658 4.17039 16.5015 3.0404 15.6369 2.20249C14.7992 1.36482 13.6692 0.900496 12.4888 0.891822C11.3084 0.883147 10.1851 1.33089 9.35963 2.15636L7.14944 4.36654M5.54787 12.1918L12.1784 5.56127" stroke="#AB0059" stroke-linecap="round" stroke-linejoin="round"/>
</svg>
