<svg width="45" height="45" viewBox="0 0 45 45" fill="none" xmlns="http://www.w3.org/2000/svg">
<g id="Tra c&#225;&#187;&#169;u th&#195;&#180;ng tin">
<path id="Vector 58" d="M7.625 31.875H16.875C19.3406 31.875 20.5734 31.875 21.4032 32.556C21.5551 32.6806 21.6944 32.8199 21.819 32.9718C22.5 33.8016 22.5 35.0344 22.5 37.5V13.5C22.5 10.6716 22.5 9.25736 21.6213 8.37868C20.7426 7.5 19.3284 7.5 16.5 7.5H7.625C6.68219 7.5 6.21079 7.5 5.91789 7.79289C5.625 8.08579 5.625 8.55719 5.625 9.5V29.875C5.625 30.8178 5.625 31.2892 5.91789 31.5821C6.21079 31.875 6.68219 31.875 7.625 31.875Z" fill="#D9D9D9"/>
<path id="Vector 59" d="M37.375 31.875H30C27.5344 31.875 26.3016 31.875 25.4718 32.556C25.3199 32.6806 25.1806 32.8199 25.056 32.9718C24.375 33.8016 24.375 35.0344 24.375 37.5V13.5C24.375 10.6716 24.375 9.25736 25.2537 8.37868C26.1324 7.5 27.5466 7.5 30.375 7.5H37.375C38.3178 7.5 38.7892 7.5 39.0821 7.79289C39.375 8.08579 39.375 8.55719 39.375 9.5V29.875C39.375 30.8178 39.375 31.2892 39.0821 31.5821C38.7892 31.875 38.3178 31.875 37.375 31.875Z" fill="url(#paint0_linear_125_258)"/>
<path id="Rectangle 4137" d="M9.375 7.65C9.375 7.56716 9.44216 7.5 9.525 7.5H14.85C14.9328 7.5 15 7.56716 15 7.65V16.2714C15 16.4942 14.7307 16.6057 14.5732 16.4482L12.3643 14.2393C12.2666 14.1416 12.1084 14.1416 12.0107 14.2393L9.80178 16.4482C9.64429 16.6057 9.375 16.4942 9.375 16.2714V7.65Z" fill="url(#paint1_linear_125_258)"/>
</g>
<defs>
<linearGradient id="paint0_linear_125_258" x1="23.5" y1="32.5" x2="47" y2="14" gradientUnits="userSpaceOnUse">
<stop stop-color="#072D94"/>
<stop offset="0.273165" stop-color="#58208C"/>
<stop offset="0.535559" stop-color="#741082"/>
<stop offset="0.773511" stop-color="#AB0059"/>
<stop offset="1" stop-color="#BC3026"/>
</linearGradient>
<linearGradient id="paint1_linear_125_258" x1="7" y1="16.5" x2="18" y2="10.5" gradientUnits="userSpaceOnUse">
<stop stop-color="#072D94"/>
<stop offset="0.516871" stop-color="#741082"/>
<stop offset="1" stop-color="#BC3026"/>
</linearGradient>
</defs>
</svg>
