<svg width="22" height="16" viewBox="0 0 22 16" fill="none" xmlns="http://www.w3.org/2000/svg">
<path d="M18.2 9.68579C19.4673 10.6327 20.6 13.0168 20.6 14.4857C20.6 14.9434 20.2661 15.3144 19.8542 15.3144H19.4M14.6 5.80456C15.4198 5.33031 15.9714 4.44389 15.9714 3.42865C15.9714 2.4134 15.4198 1.52699 14.6 1.05274M2.14576 15.3144H15.2828C15.6947 15.3144 16.0286 14.9434 16.0286 14.4857C16.0286 11.6091 13.6253 9.27717 8.71428 9.27717C3.80326 9.27717 1.39999 11.6091 1.39999 14.4857C1.39999 14.9434 1.73389 15.3144 2.14576 15.3144ZM11.4571 3.42865C11.4571 4.94349 10.2291 6.17151 8.71428 6.17151C7.19944 6.17151 5.97142 4.94349 5.97142 3.42865C5.97142 1.91381 7.19944 0.685791 8.71428 0.685791C10.2291 0.685791 11.4571 1.91381 11.4571 3.42865Z" stroke="#AB0059" stroke-linecap="round"/>
</svg>
