<svg width="23" height="23" viewBox="0 0 23 23" fill="none" xmlns="http://www.w3.org/2000/svg">
<path d="M3.74992 7.5C3.74992 3.35786 7.10779 0 11.2499 0V0C15.3921 0 18.7499 3.35786 18.7499 7.5V9.78869C18.7499 10.2801 18.7499 10.5259 18.7645 10.7672C18.8323 11.8881 19.1354 12.9823 19.654 13.9784C19.7656 14.1928 19.892 14.4035 20.1449 14.8249L20.8367 15.9779C21.5005 17.0842 21.8324 17.6374 21.6778 18.0798C21.6383 18.1928 21.5788 18.2978 21.5023 18.3898C21.2024 18.75 20.5573 18.75 19.2671 18.75H3.23279C1.94259 18.75 1.29748 18.75 0.997623 18.3898C0.921056 18.2978 0.86162 18.1928 0.822143 18.0799C0.66754 17.6374 0.999439 17.0842 1.66323 15.9779L2.35501 14.8249C2.60785 14.4035 2.73427 14.1928 2.8459 13.9784C3.36447 12.9823 3.66752 11.8881 3.73533 10.7672C3.74992 10.5259 3.74992 10.2802 3.74992 9.78873V7.5Z" fill="#072D94"/>
<path d="M14.2253 20C14.3081 20 14.3759 20.0673 14.3697 20.1499C14.324 20.7582 14.0018 21.3344 13.46 21.7678C12.874 22.2366 12.0791 22.5 11.2503 22.5C10.4215 22.5 9.62665 22.2366 9.0406 21.7678C8.49886 21.3344 8.17656 20.7582 8.13092 20.1499C8.12472 20.0673 8.19246 20 8.27531 20L11.2503 20L14.2253 20Z" fill="#072D94"/>
</svg>
