<svg width="18" height="20" viewBox="0 0 18 20" fill="none" xmlns="http://www.w3.org/2000/svg">
<path id="Icon" d="M1.60147 14.4759L1.19112 14.1903L1.19112 14.1903L1.60147 14.4759ZM2.69156 11.1034L2.19156 11.0978V11.1034H2.69156ZM2.71444 9.0643L3.21444 9.06991V9.0643H2.71444ZM16.4065 14.4923L16.8224 14.2147L16.8224 14.2147L16.4065 14.4923ZM15.3575 11.1034L14.8575 11.0975V11.1034H15.3575ZM15.3803 9.16534L15.8803 9.17124V9.16534H15.3803ZM6.81278 17.7604C6.59665 17.5885 6.2821 17.6244 6.11023 17.8405C5.93835 18.0567 5.97422 18.3712 6.19036 18.5431L6.81278 17.7604ZM11.8118 18.5431C12.028 18.3712 12.0638 18.0567 11.892 17.8405C11.7201 17.6244 11.4055 17.5885 11.1894 17.7604L11.8118 18.5431ZM0.532623 4.20156C0.434511 4.45969 0.564226 4.74847 0.822351 4.84659C1.08048 4.9447 1.36926 4.81498 1.46738 4.55686L0.532623 4.20156ZM4.06324 1.43473C4.30334 1.29832 4.38739 0.993103 4.25098 0.753006C4.11457 0.512909 3.80935 0.428855 3.56925 0.565266L4.06324 1.43473ZM14.4157 0.577118C14.1771 0.438092 13.8709 0.518807 13.7319 0.7574C13.5929 0.995993 13.6736 1.30211 13.9122 1.44114L14.4157 0.577118ZM16.5308 4.54286C16.6263 4.80198 16.9137 4.93465 17.1728 4.83919C17.432 4.74374 17.5646 4.4563 17.4692 4.19718L16.5308 4.54286ZM2.01182 14.7616C2.60805 13.9052 3.19156 12.6387 3.19156 11.1034H2.19156C2.19156 12.3825 1.70428 13.4532 1.19112 14.1903L2.01182 14.7616ZM3.19153 11.109L3.21441 9.06991L2.21447 9.05869L2.19159 11.0978L3.19153 11.109ZM16.8224 14.2147C16.3303 13.4776 15.8575 12.3977 15.8575 11.1034H14.8575C14.8575 12.6428 15.4185 13.9129 15.9907 14.7699L16.8224 14.2147ZM15.8574 11.1093L15.8803 9.17124L14.8804 9.15944L14.8575 11.0975L15.8574 11.1093ZM15.8803 9.16534C15.8803 5.08687 12.8406 1.70465 9.00109 1.70465V2.70465C12.208 2.70465 14.8803 5.55525 14.8803 9.16534H15.8803ZM16.0248 15.9373C16.5066 15.9373 16.7982 15.5725 16.914 15.2756C17.0326 14.9717 17.0501 14.5558 16.8224 14.2147L15.9907 14.7699C15.99 14.769 15.9978 14.7805 15.9994 14.8113C16.001 14.8424 15.9953 14.879 15.9824 14.9122C15.969 14.9464 15.9552 14.9592 15.9561 14.9583C15.9609 14.9542 15.986 14.9373 16.0248 14.9373V15.9373ZM3.21444 9.0643C3.21444 5.51002 5.84537 2.70465 9.00109 2.70465V1.70465C5.21277 1.70465 2.21444 5.04163 2.21444 9.0643H3.21444ZM1.97833 14.9373C2.01827 14.9373 2.04375 14.9551 2.04789 14.9587C2.04816 14.9589 2.03344 14.9447 2.01971 14.9085C2.00642 14.8733 2.00089 14.8349 2.00293 14.8027C2.00496 14.7708 2.01313 14.7597 2.01182 14.7616L1.19112 14.1903C0.953126 14.5321 0.968205 14.9552 1.08442 15.2623C1.19769 15.5617 1.48895 15.9373 1.97833 15.9373V14.9373ZM16.0248 14.9373H1.97833V15.9373H16.0248V14.9373ZM9.00109 18.5C8.15208 18.5 7.38624 18.2164 6.81278 17.7604L6.19036 18.5431C6.94354 19.142 7.92958 19.5 9.00109 19.5V18.5ZM11.1894 17.7604C10.6159 18.2164 9.8501 18.5 9.00109 18.5V19.5C10.0726 19.5 11.0587 19.142 11.8118 18.5431L11.1894 17.7604ZM1.46738 4.55686C1.97803 3.21339 2.88811 2.10238 4.06324 1.43473L3.56925 0.565266C2.17138 1.35946 1.11714 2.66375 0.532623 4.20156L1.46738 4.55686ZM13.9122 1.44114C15.1073 2.13749 16.0448 3.22343 16.5308 4.54286L17.4692 4.19718C16.8999 2.65183 15.8042 1.38618 14.4157 0.577118L13.9122 1.44114Z" fill="#AB0059"/>
</svg>
