<svg width="20" height="20" viewBox="0 0 20 20" fill="none" xmlns="http://www.w3.org/2000/svg">
<g id="Group 2812">
<path id="Vector" d="M12.5 17.5H7.5C7.5 18.875 8.625 20 10 20C11.375 20 12.5 18.875 12.5 17.5Z" fill="#9758D0"/>
<path id="Vector_2" d="M18.75 13.75H18.125C17.25 12.875 16.25 11.625 16.25 10V6.25C16.25 2.75 13.5 0 10 0C6.5 0 3.75 2.75 3.75 6.25V10C3.75 11.625 2.75 12.875 1.875 13.75H1.25C0.5 13.75 0 14.25 0 15C0 15.75 0.5 16.25 1.25 16.25H18.75C19.5 16.25 20 15.75 20 15C20 14.25 19.5 13.75 18.75 13.75Z" fill="#9758D0"/>
</g>
</svg>
