<svg width="50" height="50" viewBox="0 0 50 50" fill="none" xmlns="http://www.w3.org/2000/svg">
<g id="&#198;&#175;u &#196;&#145;&#195;&#163;i">
<path id="Rectangle 4141" d="M10.4167 16.6667H39.5833V37.6667C39.5833 39.5523 39.5833 40.4951 38.9975 41.0809C38.4118 41.6667 37.469 41.6667 35.5833 41.6667H14.4167C12.531 41.6667 11.5882 41.6667 11.0025 41.0809C10.4167 40.4951 10.4167 39.5523 10.4167 37.6667V16.6667Z" fill="url(#paint0_linear_125_238)"/>
<path id="Vector 210" d="M25 16.6667L24.3537 10.8499C24.1286 8.82421 22.4164 7.29166 20.3782 7.29166H17.5417C15.3325 7.29166 13.5417 9.08252 13.5417 11.2917V13.4843C13.5417 14.8217 14.2101 16.0706 15.3229 16.8125L19.7917 19.7917" stroke="#D9D9D9" stroke-linecap="round"/>
<path id="Vector 211" d="M25 16.6667L25.6463 10.8499C25.8714 8.82421 27.5836 7.29166 29.6218 7.29166H32.4583C34.6675 7.29166 36.4583 9.08252 36.4583 11.2917V13.4843C36.4583 14.8217 35.7899 16.0706 34.6771 16.8125L30.2083 19.7917" stroke="#D9D9D9" stroke-linecap="round"/>
<rect id="Rectangle 4140" x="8.33333" y="16.6667" width="33.3333" height="6.25" rx="1" fill="#D9D9D9"/>
<path id="Vector 291" d="M25 22.9167V31.25" stroke="#D9D9D9" stroke-linecap="round"/>
</g>
<defs>
<linearGradient id="paint0_linear_125_238" x1="6.66667" y1="41.6667" x2="47.5" y2="33.3333" gradientUnits="userSpaceOnUse">
<stop stop-color="#072D94"/>
<stop offset="0.260654" stop-color="#58208C"/>
<stop offset="0.529688" stop-color="#741082"/>
<stop offset="0.779976" stop-color="#AB0059"/>
<stop offset="1" stop-color="#BC3026"/>
</linearGradient>
</defs>
</svg>
