<svg width="40" height="40" viewBox="0 0 40 40" fill="none" xmlns="http://www.w3.org/2000/svg">
<g id="Ticket_duotone">
<path id="Rectangle 1" d="M5 12.6667C5 9.83824 5 8.42402 5.87868 7.54534C6.75736 6.66666 8.17157 6.66666 11 6.66666H29C31.8284 6.66666 33.2426 6.66666 34.1213 7.54534C35 8.42402 35 9.83824 35 12.6667V15.4167C35 15.649 35 15.7652 34.9808 15.8618C34.9019 16.2584 34.5918 16.5685 34.1951 16.6474C34.0985 16.6667 33.9823 16.6667 33.75 16.6667H33.3333C33.0238 16.6667 32.869 16.6667 32.7385 16.6781C31.2882 16.805 30.1383 17.9549 30.0114 19.4052C30 19.5357 30 19.6905 30 20C30 20.3095 30 20.4643 30.0114 20.5948C30.1383 22.0451 31.2882 23.195 32.7385 23.3219C32.869 23.3333 33.0238 23.3333 33.3333 23.3333H33.75C33.9823 23.3333 34.0985 23.3333 34.1951 23.3525C34.5918 23.4315 34.9019 23.7416 34.9808 24.1382C35 24.2348 35 24.351 35 24.5833V27.3333C35 30.1618 35 31.576 34.1213 32.4547C33.2426 33.3333 31.8284 33.3333 29 33.3333H11C8.17157 33.3333 6.75736 33.3333 5.87868 32.4547C5 31.576 5 30.1618 5 27.3333V24.5833C5 24.351 5 24.2348 5.01921 24.1382C5.09812 23.7416 5.40822 23.4315 5.80491 23.3525C5.90151 23.3333 6.01767 23.3333 6.25 23.3333H6.66667C6.97621 23.3333 7.13098 23.3333 7.26147 23.3219C8.71181 23.195 9.8617 22.0451 9.98858 20.5948C10 20.4643 10 20.3095 10 20C10 19.6905 10 19.5357 9.98858 19.4052C9.8617 17.9549 8.71181 16.805 7.26147 16.6781C7.13098 16.6667 6.97621 16.6667 6.66667 16.6667H6.25C6.01767 16.6667 5.90151 16.6667 5.80491 16.6474C5.40822 16.5685 5.09812 16.2584 5.01921 15.8618C5 15.7652 5 15.649 5 15.4167V12.6667Z" fill="url(#paint0_linear_353_11792)"/>
<path id="Star 4" d="M19.5964 13.8853C19.7961 13.6122 20.2039 13.6122 20.4036 13.8853L22.3346 16.5263C22.3963 16.6107 22.4829 16.6736 22.5823 16.7062L25.6907 17.7266C26.0122 17.8322 26.1382 18.2199 25.9401 18.4943L24.0252 21.1469C23.964 21.2317 23.9309 21.3335 23.9305 21.4381L23.9206 24.7096C23.9196 25.048 23.5897 25.2877 23.2676 25.1841L20.1531 24.1826C20.0535 24.1506 19.9465 24.1506 19.8469 24.1826L16.7324 25.1841C16.4103 25.2877 16.0804 25.048 16.0794 24.7096L16.0695 21.4381C16.0691 21.3335 16.0361 21.2317 15.9749 21.1469L14.0599 18.4943C13.8618 18.2199 13.9878 17.8322 14.3093 17.7266L17.4177 16.7062C17.5171 16.6736 17.6037 16.6107 17.6654 16.5263L19.5964 13.8853Z" fill="#C7C7C7"/>
</g>
<defs>
<linearGradient id="paint0_linear_353_11792" x1="38" y1="16.5" x2="1" y2="28" gradientUnits="userSpaceOnUse">
<stop stop-color="#BC3026"/>
<stop offset="0.231539" stop-color="#AB0059"/>
<stop offset="0.496219" stop-color="#741082"/>
<stop offset="0.755917" stop-color="#58208C"/>
<stop offset="1" stop-color="#072D94"/>
</linearGradient>
</defs>
</svg>
