<svg width="40" height="40" viewBox="0 0 40 40" fill="none" xmlns="http://www.w3.org/2000/svg">
<path d="M5.08516 4.91653L9.31125 1.03447C9.71798 0.660852 10.3506 0.687692 10.7242 1.09442L17.4501 8.41636C17.8237 8.82308 17.7969 9.45568 17.3901 9.8293L14.26 12.7047C13.943 12.9958 13.8479 13.4572 14.0239 13.85L14.4547 14.8116C16.4896 19.3531 19.9426 23.1121 24.2954 25.5243L25.2171 26.0351C25.5935 26.2438 26.0613 26.1881 26.3783 25.8969L29.5084 23.0215C29.9152 22.6479 30.5478 22.6748 30.9214 23.0815L37.6473 30.4034C38.0209 30.8102 37.9941 31.4428 37.5873 31.8164L33.3612 35.6984C31.1623 37.7184 27.8127 37.814 25.502 35.9228L15.7348 27.9286C14.0483 26.5482 12.5665 24.9351 11.334 23.1377L4.19585 12.7285C2.50718 10.266 2.88621 6.93648 5.08516 4.91653Z" fill="url(#paint0_linear_2051_972)"/>
<path fill-rule="evenodd" clip-rule="evenodd" d="M37.5875 31.8165C37.9942 31.4429 38.021 30.8103 37.6474 30.4035L30.9215 23.0816C30.5479 22.6749 29.9153 22.648 29.5086 23.0217L26.947 25.3747L35.0259 34.1696L37.5875 31.8165ZM14.8286 12.1825L17.3903 9.82942C17.797 9.4558 17.8238 8.8232 17.4502 8.41648L10.7243 1.09454C10.3516 0.688822 9.72124 0.661107 9.31441 1.03181L6.74977 3.38767L14.8286 12.1825Z" fill="#D9D9D9"/>
<defs>
<linearGradient id="paint0_linear_2051_972" x1="1.15979" y1="10.6304" x2="27.3998" y2="37.607" gradientUnits="userSpaceOnUse">
<stop stop-color="#BC3026"/>
<stop offset="0.239583" stop-color="#AB0059"/>
<stop offset="0.515625" stop-color="#741082"/>
<stop offset="0.78125" stop-color="#58208C"/>
<stop offset="1" stop-color="#072D94"/>
</linearGradient>
</defs>
</svg>
