<svg width="30" height="30" viewBox="0 0 30 30" fill="none" xmlns="http://www.w3.org/2000/svg">
<g id="C&#195;&#160;i &#196;&#145;&#225;&#186;&#183;t - Ch&#225;&#187;&#141;n">
<path id="Vector 283" d="M7.05976 7.56767L4.61123 12.1927C3.8834 13.5675 3.51948 14.2549 3.51948 15C3.51948 15.7451 3.8834 16.4325 4.61123 17.8073L7.05976 22.4323C7.88314 23.9876 8.29483 24.7652 9.00883 25.1951C9.72282 25.625 10.6027 25.625 12.3625 25.625H17.6375C19.3973 25.625 20.2772 25.625 20.9912 25.1951C21.7052 24.7652 22.1169 23.9876 22.9402 22.4323L22.9402 22.4323L25.3888 17.8073C26.1166 16.4325 26.4805 15.7451 26.4805 15C26.4805 14.2549 26.1166 13.5675 25.3888 12.1927L22.9402 7.56767C22.1169 6.0124 21.7052 5.23477 20.9912 4.80488C20.2772 4.375 19.3973 4.375 17.6375 4.375H12.3625C10.6027 4.375 9.72282 4.375 9.00883 4.80488C8.29483 5.23477 7.88314 6.0124 7.05976 7.56767Z" fill="#C7C7C7"/>
<circle id="Ellipse 5" cx="15" cy="15" r="3.75" fill="white"/>
</g>
</svg>
