<svg width="53" height="52" viewBox="0 0 53 52" fill="none" xmlns="http://www.w3.org/2000/svg">
<rect x="14.9159" y="6.39254" width="21.3085" height="36.2244" rx="2" fill="#D9D9D9"/>
<circle cx="25.5702" cy="38.3553" r="2.13085" fill="url(#paint0_linear_440_11837)"/>
<path d="M19.1776 8.80132C19.1776 8.68123 19.1776 8.62118 19.21 8.58025C19.2172 8.57119 19.2254 8.56298 19.2345 8.5558C19.2754 8.52339 19.3355 8.52339 19.4556 8.52339H31.6848C31.8049 8.52339 31.8649 8.52339 31.9058 8.5558C31.9149 8.56298 31.9231 8.57119 31.9303 8.58025C31.9627 8.62118 31.9627 8.68123 31.9627 8.80132C31.9627 9.60197 31.9627 10.0023 31.7466 10.2751C31.6987 10.3356 31.644 10.3903 31.5836 10.4381C31.3108 10.6542 30.9104 10.6542 30.1098 10.6542H21.0305C20.2299 10.6542 19.8296 10.6542 19.5567 10.4381C19.4963 10.3903 19.4416 10.3356 19.3937 10.2751C19.1776 10.0023 19.1776 9.60197 19.1776 8.80132Z" fill="url(#paint1_linear_440_11837)"/>
<path d="M29.7544 36.8684C29.7544 35.9256 29.7544 35.4542 30.0473 35.1613C30.3402 34.8684 30.8116 34.8684 31.7544 34.8684H46.3509C47.2937 34.8684 47.7651 34.8684 48.058 35.1613C48.3509 35.4542 48.3509 35.9256 48.3509 36.8684V44.2103C48.3509 44.8951 48.3509 45.2375 48.2583 45.531C48.1135 45.9905 47.8076 46.3823 47.3969 46.6343C47.1345 46.7953 46.8024 46.8784 46.138 47.0444C43.9175 47.5996 42.8073 47.8771 41.6873 48.026C39.9385 48.2584 38.1667 48.2584 36.4179 48.026C35.298 47.8771 34.1877 47.5996 31.9672 47.0444C31.3029 46.8784 30.9707 46.7953 30.7084 46.6343C30.2977 46.3823 29.9918 45.9905 29.8469 45.531C29.7544 45.2375 29.7544 44.8951 29.7544 44.2103V36.8684Z" fill="url(#paint2_linear_440_11837)"/>
<circle cx="39.0526" cy="40.6798" r="2.32456" fill="#D9D9D9"/>
<path d="M40.1053 43.2456V45.7456" stroke="#D9D9D9" stroke-linecap="round"/>
<path d="M44.2829 34.8684V31.3816C44.2829 31.1678 44.2829 31.0609 44.2796 30.9705C44.1848 28.351 42.0832 26.2494 39.4637 26.1546C39.3733 26.1513 39.2664 26.1513 39.0526 26.1513V26.1513C38.8388 26.1513 38.7319 26.1513 38.6415 26.1546C36.0221 26.2494 33.9204 28.351 33.8256 30.9705C33.8224 31.0609 33.8224 31.1678 33.8224 31.3816V32.5439" stroke="url(#paint3_linear_440_11837)"/>
<defs>
<linearGradient id="paint0_linear_440_11837" x1="27.6158" y1="36.821" x2="23.0132" y2="40.4009" gradientUnits="userSpaceOnUse">
<stop stop-color="#BC3026"/>
<stop offset="0.50209" stop-color="#741082"/>
<stop offset="1" stop-color="#072D94"/>
</linearGradient>
<linearGradient id="paint1_linear_440_11837" x1="33.2412" y1="9.71666" x2="17.3877" y2="10.2281" gradientUnits="userSpaceOnUse">
<stop stop-color="#BC3026"/>
<stop offset="0.213837" stop-color="#AB0059"/>
<stop offset="0.472646" stop-color="#741082"/>
<stop offset="0.755704" stop-color="#58208C"/>
<stop offset="1" stop-color="#072D94"/>
</linearGradient>
<linearGradient id="paint2_linear_440_11837" x1="51.2566" y1="39.5175" x2="28.011" y2="49.9781" gradientUnits="userSpaceOnUse">
<stop stop-color="#BC3026"/>
<stop offset="0.228019" stop-color="#AB0059"/>
<stop offset="0.511067" stop-color="#741082"/>
<stop offset="0.773022" stop-color="#58208C"/>
<stop offset="1" stop-color="#072D94"/>
</linearGradient>
<linearGradient id="paint3_linear_440_11837" x1="46.0263" y1="31.3816" x2="29.1732" y2="29.6382" gradientUnits="userSpaceOnUse">
<stop stop-color="#BC3026"/>
<stop offset="0.231536" stop-color="#AB0059"/>
<stop offset="0.471921" stop-color="#741082"/>
<stop offset="0.72219" stop-color="#58208C"/>
<stop offset="1" stop-color="#072D94"/>
</linearGradient>
</defs>
</svg>
