<svg width="22" height="28" viewBox="0 0 22 28" fill="none" xmlns="http://www.w3.org/2000/svg">
<g id="N&#225;&#187;&#145;t nh&#225;&#186;&#161;c icon">
<path id="Rectangle 4340" d="M12.5222 2.58927L20.4685 1.39732L19.6739 6.56243L12.5586 7.98774L12.5222 2.58927Z" fill="#D9D9D9"/>
<g id="Vector 72">
<path fill-rule="evenodd" clip-rule="evenodd" d="M12.0245 21.3574V17.2734H5.82043C3.42216 17.2734 1.38884 19.0369 1.04967 21.4111C0.600283 24.5568 3.26507 27.2688 6.41818 26.8746L7.24535 26.7712C9.97564 26.4299 12.0245 24.109 12.0245 21.3574Z" fill="url(#paint0_linear_440_11889)"/>
<path d="M12.0245 8.37307V7.46599C12.0245 5.06535 12.0245 3.86503 12.7276 3.03508C13.4307 2.20513 14.6147 2.0078 16.9826 1.61314L20.4786 1.03049C20.68 0.996907 20.7808 0.980118 20.8351 1.03899C20.8895 1.09786 20.8647 1.19694 20.8152 1.39508L19.487 6.70754C19.4649 6.79606 19.4539 6.84032 19.4227 6.86999C19.3916 6.89966 19.3469 6.9086 19.2574 6.9265L12.0245 8.37307ZM12.0245 8.37307V17.2734M12.0245 17.2734V21.3574C12.0245 24.109 9.97564 26.4299 7.24535 26.7712L6.41818 26.8746C3.26507 27.2688 0.600283 24.5568 1.04967 21.4111C1.38884 19.0369 3.42216 17.2734 5.82043 17.2734H12.0245Z" stroke="url(#paint1_linear_440_11889)" stroke-width="2"/>
</g>
</g>
<defs>
<linearGradient id="paint0_linear_440_11889" x1="19.2766" y1="14.5088" x2="0.999999" y2="31.9907" gradientUnits="userSpaceOnUse">
<stop stop-color="#BC3026"/>
<stop offset="0.31293" stop-color="#AB0059"/>
<stop offset="0.731555" stop-color="#741082"/>
<stop offset="1" stop-color="#072D94"/>
</linearGradient>
<linearGradient id="paint1_linear_440_11889" x1="24.4417" y1="13.7141" x2="-3.37048" y2="36.3612" gradientUnits="userSpaceOnUse">
<stop stop-color="#BC3026"/>
<stop offset="0.306845" stop-color="#AB0059"/>
<stop offset="0.674778" stop-color="#741082"/>
<stop offset="1" stop-color="#072D94"/>
</linearGradient>
</defs>
</svg>
