<svg width="21" height="22" viewBox="0 0 21 22" fill="none" xmlns="http://www.w3.org/2000/svg">
<path d="M20.2 15.6526V16.1526C20.4761 16.1526 20.7 15.9288 20.7 15.6526H20.2ZM20.2 10.0947H20.7C20.7 9.8186 20.4761 9.59474 20.2 9.59474V10.0947ZM5.99978 5.13327C5.77108 5.28803 5.71114 5.59889 5.8659 5.82759C6.02066 6.05629 6.33152 6.11623 6.56022 5.96147L5.99978 5.13327ZM13 1L13.4021 0.702867C13.2428 0.487255 12.9418 0.435657 12.7198 0.585901L13 1ZM15.9579 5.8445C16.122 6.06659 16.435 6.11361 16.6571 5.9495C16.8792 5.7854 16.9262 5.47233 16.7621 5.25024L15.9579 5.8445ZM20.2 15.1526H17.08V16.1526H20.2V15.1526ZM17.08 10.5947H20.2V9.59474H17.08V10.5947ZM19.7 10.0947V15.6526H20.7V10.0947H19.7ZM14.94 12.8737C14.94 11.5906 15.922 10.5947 17.08 10.5947V9.59474C15.322 9.59474 13.94 11.0873 13.94 12.8737H14.94ZM17.08 15.1526C15.922 15.1526 14.94 14.1568 14.94 12.8737H13.94C13.94 14.6601 15.322 16.1526 17.08 16.1526V15.1526ZM6.56022 5.96147L13.2802 1.4141L12.7198 0.585901L5.99978 5.13327L6.56022 5.96147ZM12.5979 1.29713L15.9579 5.8445L16.7621 5.25024L13.4021 0.702867L12.5979 1.29713ZM1.96 6.04737H18.28V5.04737H1.96V6.04737ZM18.28 20.2053H1.96V21.2053H18.28V20.2053ZM1.5 19.6947V6.5579H0.5V19.6947H1.5ZM1.96 20.2053C1.72981 20.2053 1.5 20.0012 1.5 19.6947H0.5C0.5 20.5045 1.12981 21.2053 1.96 21.2053V20.2053ZM18.74 19.6947C18.74 20.0012 18.5102 20.2053 18.28 20.2053V21.2053C19.1102 21.2053 19.74 20.5045 19.74 19.6947H18.74ZM18.28 6.04737C18.5102 6.04737 18.74 6.25146 18.74 6.5579H19.74C19.74 5.74813 19.1102 5.04737 18.28 5.04737V6.04737ZM1.96 5.04737C1.12981 5.04737 0.5 5.74813 0.5 6.5579H1.5C1.5 6.25146 1.72981 6.04737 1.96 6.04737V5.04737ZM18.74 16.4105V19.6947H19.74V16.4105H18.74ZM18.74 6.5579V9.21053H19.74V6.5579H18.74Z" fill="#AB0059"/>
</svg>
